<mxfile host="Electron" modified="2024-02-11T14:44:41.533Z" agent="Mozilla/5.0 (Windows NT 10.0; Win64; x64) AppleWebKit/537.36 (KHTML, like Gecko) draw.io/23.0.2 Chrome/120.0.6099.109 Electron/28.1.0 Safari/537.36" etag="KNsMkXFZ_ug6k23Dr6Mn" version="23.0.2" type="device">
  <diagram name="Страница — 1" id="hrtfiBWyKwSKPF8cDcfx">
    <mxGraphModel dx="3088" dy="844" grid="1" gridSize="10" guides="1" tooltips="1" connect="1" arrows="1" fold="1" page="1" pageScale="1" pageWidth="827" pageHeight="1169" math="0" shadow="0">
      <root>
        <mxCell id="0" />
        <mxCell id="1" parent="0" />
        <mxCell id="-mwx2HMCYt_P7wvI2Kho-1" value="начало" style="ellipse;whiteSpace=wrap;html=1;" parent="1" vertex="1">
          <mxGeometry x="354" width="120" height="20" as="geometry" />
        </mxCell>
        <mxCell id="-mwx2HMCYt_P7wvI2Kho-3" value="" style="endArrow=none;html=1;rounded=0;" parent="1" edge="1">
          <mxGeometry width="50" height="50" relative="1" as="geometry">
            <mxPoint x="414" y="80" as="sourcePoint" />
            <mxPoint x="520" y="80" as="targetPoint" />
          </mxGeometry>
        </mxCell>
        <mxCell id="-mwx2HMCYt_P7wvI2Kho-4" value="&lt;div&gt;#include &amp;lt;iostream&amp;gt;&lt;/div&gt;&lt;div&gt;using namespace std;&lt;/div&gt;&lt;div&gt;&lt;span style=&quot;background-color: initial;&quot;&gt;extern int IterationCounter = 0;&lt;/span&gt;&lt;br&gt;&lt;/div&gt;&lt;div&gt;&lt;span style=&quot;background-color: initial;&quot;&gt;&lt;div&gt;int main()&amp;nbsp;&lt;span style=&quot;background-color: initial;&quot;&gt;{&lt;/span&gt;&lt;/div&gt;&lt;div&gt;&amp;nbsp; &amp;nbsp; setlocale(LC_ALL, &quot;RUS&quot;);&lt;/div&gt;&lt;div&gt;&amp;nbsp; &amp;nbsp; int numberOfDisks;&lt;/div&gt;&lt;/span&gt;&lt;/div&gt;" style="rounded=0;whiteSpace=wrap;html=1;" parent="1" vertex="1">
          <mxGeometry x="520" y="30" width="160" height="100" as="geometry" />
        </mxCell>
        <mxCell id="-mwx2HMCYt_P7wvI2Kho-5" value="" style="endArrow=classic;html=1;rounded=0;" parent="1" edge="1">
          <mxGeometry width="50" height="50" relative="1" as="geometry">
            <mxPoint x="413" y="20" as="sourcePoint" />
            <mxPoint x="413" y="160" as="targetPoint" />
          </mxGeometry>
        </mxCell>
        <mxCell id="-mwx2HMCYt_P7wvI2Kho-9" style="edgeStyle=orthogonalEdgeStyle;rounded=0;orthogonalLoop=1;jettySize=auto;html=1;entryX=0.5;entryY=0;entryDx=0;entryDy=0;" parent="1" source="-mwx2HMCYt_P7wvI2Kho-6" target="-mwx2HMCYt_P7wvI2Kho-8" edge="1">
          <mxGeometry relative="1" as="geometry" />
        </mxCell>
        <mxCell id="-mwx2HMCYt_P7wvI2Kho-6" value="cin &amp;gt;&amp;gt; numberOfDisks;" style="shape=parallelogram;perimeter=parallelogramPerimeter;whiteSpace=wrap;html=1;fixedSize=1;" parent="1" vertex="1">
          <mxGeometry x="339" y="160" width="150" height="20" as="geometry" />
        </mxCell>
        <mxCell id="-mwx2HMCYt_P7wvI2Kho-8" value="if (numberOfDisks &amp;lt; 1)" style="rhombus;whiteSpace=wrap;html=1;" parent="1" vertex="1">
          <mxGeometry x="341" y="210" width="146" height="70" as="geometry" />
        </mxCell>
        <mxCell id="-mwx2HMCYt_P7wvI2Kho-10" value="" style="endArrow=none;html=1;rounded=0;" parent="1" edge="1">
          <mxGeometry width="50" height="50" relative="1" as="geometry">
            <mxPoint x="487" y="244.8" as="sourcePoint" />
            <mxPoint x="520" y="245" as="targetPoint" />
          </mxGeometry>
        </mxCell>
        <mxCell id="-mwx2HMCYt_P7wvI2Kho-11" value="" style="endArrow=classic;html=1;rounded=0;" parent="1" edge="1">
          <mxGeometry width="50" height="50" relative="1" as="geometry">
            <mxPoint x="520" y="245" as="sourcePoint" />
            <mxPoint x="520" y="280" as="targetPoint" />
          </mxGeometry>
        </mxCell>
        <mxCell id="-mwx2HMCYt_P7wvI2Kho-14" style="edgeStyle=orthogonalEdgeStyle;rounded=0;orthogonalLoop=1;jettySize=auto;html=1;entryX=0.5;entryY=0;entryDx=0;entryDy=0;" parent="1" source="-mwx2HMCYt_P7wvI2Kho-12" target="-mwx2HMCYt_P7wvI2Kho-13" edge="1">
          <mxGeometry relative="1" as="geometry" />
        </mxCell>
        <mxCell id="-mwx2HMCYt_P7wvI2Kho-12" value="cout &amp;lt;&amp;lt; endl;" style="shape=parallelogram;perimeter=parallelogramPerimeter;whiteSpace=wrap;html=1;fixedSize=1;" parent="1" vertex="1">
          <mxGeometry x="460" y="280" width="120" height="20" as="geometry" />
        </mxCell>
        <mxCell id="-mwx2HMCYt_P7wvI2Kho-13" value="TowerSolver(numberOfDisks, 1, 3, 2, 0);" style="shape=process;whiteSpace=wrap;html=1;backgroundOutline=1;" parent="1" vertex="1">
          <mxGeometry x="410" y="330" width="220" height="40" as="geometry" />
        </mxCell>
        <mxCell id="-mwx2HMCYt_P7wvI2Kho-16" value="cout &amp;lt;&amp;lt; endl&amp;nbsp; IterationCounter &amp;lt;&amp;lt; endl;" style="shape=parallelogram;perimeter=parallelogramPerimeter;whiteSpace=wrap;html=1;fixedSize=1;" parent="1" vertex="1">
          <mxGeometry x="405" y="410" width="230" height="20" as="geometry" />
        </mxCell>
        <mxCell id="-mwx2HMCYt_P7wvI2Kho-18" style="edgeStyle=orthogonalEdgeStyle;rounded=0;orthogonalLoop=1;jettySize=auto;html=1;entryX=0.5;entryY=-0.14;entryDx=0;entryDy=0;entryPerimeter=0;" parent="1" source="-mwx2HMCYt_P7wvI2Kho-13" target="-mwx2HMCYt_P7wvI2Kho-16" edge="1">
          <mxGeometry relative="1" as="geometry" />
        </mxCell>
        <mxCell id="-mwx2HMCYt_P7wvI2Kho-19" value="" style="endArrow=none;html=1;rounded=0;" parent="1" edge="1">
          <mxGeometry width="50" height="50" relative="1" as="geometry">
            <mxPoint x="520" y="430" as="sourcePoint" />
            <mxPoint x="520" y="480" as="targetPoint" />
          </mxGeometry>
        </mxCell>
        <mxCell id="-mwx2HMCYt_P7wvI2Kho-20" value="" style="endArrow=none;html=1;rounded=0;" parent="1" edge="1">
          <mxGeometry width="50" height="50" relative="1" as="geometry">
            <mxPoint x="320" y="245" as="sourcePoint" />
            <mxPoint x="341" y="244.8" as="targetPoint" />
          </mxGeometry>
        </mxCell>
        <mxCell id="-mwx2HMCYt_P7wvI2Kho-21" value="" style="endArrow=none;html=1;rounded=0;" parent="1" edge="1">
          <mxGeometry width="50" height="50" relative="1" as="geometry">
            <mxPoint x="320" y="480" as="sourcePoint" />
            <mxPoint x="320" y="245" as="targetPoint" />
          </mxGeometry>
        </mxCell>
        <mxCell id="-mwx2HMCYt_P7wvI2Kho-22" value="" style="endArrow=none;html=1;rounded=0;" parent="1" edge="1">
          <mxGeometry width="50" height="50" relative="1" as="geometry">
            <mxPoint x="320" y="480" as="sourcePoint" />
            <mxPoint x="520" y="480" as="targetPoint" />
          </mxGeometry>
        </mxCell>
        <mxCell id="-mwx2HMCYt_P7wvI2Kho-23" value="" style="endArrow=classic;html=1;rounded=0;" parent="1" edge="1">
          <mxGeometry width="50" height="50" relative="1" as="geometry">
            <mxPoint x="440" y="480" as="sourcePoint" />
            <mxPoint x="440" y="520" as="targetPoint" />
          </mxGeometry>
        </mxCell>
        <mxCell id="-mwx2HMCYt_P7wvI2Kho-24" value="return 0;" style="ellipse;whiteSpace=wrap;html=1;" parent="1" vertex="1">
          <mxGeometry x="380" y="520" width="120" height="20" as="geometry" />
        </mxCell>
        <mxCell id="-mwx2HMCYt_P7wvI2Kho-25" value="1" style="text;strokeColor=none;fillColor=none;align=left;verticalAlign=middle;spacingLeft=4;spacingRight=4;overflow=hidden;points=[[0,0.5],[1,0.5]];portConstraint=eastwest;rotatable=0;whiteSpace=wrap;html=1;" parent="1" vertex="1">
          <mxGeometry x="325" y="220" width="80" height="30" as="geometry" />
        </mxCell>
        <mxCell id="-mwx2HMCYt_P7wvI2Kho-26" value="0" style="text;strokeColor=none;fillColor=none;align=left;verticalAlign=middle;spacingLeft=4;spacingRight=4;overflow=hidden;points=[[0,0.5],[1,0.5]];portConstraint=eastwest;rotatable=0;whiteSpace=wrap;html=1;" parent="1" vertex="1">
          <mxGeometry x="480" y="220" width="80" height="30" as="geometry" />
        </mxCell>
        <mxCell id="-mwx2HMCYt_P7wvI2Kho-27" value="начало" style="ellipse;whiteSpace=wrap;html=1;" parent="1" vertex="1">
          <mxGeometry x="-140" width="120" height="30" as="geometry" />
        </mxCell>
        <mxCell id="-mwx2HMCYt_P7wvI2Kho-29" value="" style="endArrow=none;html=1;rounded=0;" parent="1" edge="1">
          <mxGeometry width="50" height="50" relative="1" as="geometry">
            <mxPoint x="-80" y="69.66" as="sourcePoint" />
            <mxPoint y="69.66" as="targetPoint" />
          </mxGeometry>
        </mxCell>
        <mxCell id="-mwx2HMCYt_P7wvI2Kho-30" value="&lt;div&gt;void TowerSolver(int n, int start, int goal, int helping, int rootId)&amp;nbsp;&lt;span style=&quot;background-color: initial;&quot;&gt;{&lt;/span&gt;&lt;/div&gt;" style="rounded=0;whiteSpace=wrap;html=1;" parent="1" vertex="1">
          <mxGeometry y="40" width="120" height="60" as="geometry" />
        </mxCell>
        <mxCell id="-mwx2HMCYt_P7wvI2Kho-31" value="" style="endArrow=classic;html=1;rounded=0;" parent="1" edge="1">
          <mxGeometry width="50" height="50" relative="1" as="geometry">
            <mxPoint x="-80.34" y="30" as="sourcePoint" />
            <mxPoint x="-80" y="120" as="targetPoint" />
          </mxGeometry>
        </mxCell>
        <mxCell id="-mwx2HMCYt_P7wvI2Kho-32" value="&amp;nbsp;if (n &amp;gt; 0)" style="rhombus;whiteSpace=wrap;html=1;" parent="1" vertex="1">
          <mxGeometry x="-120" y="120" width="80" height="80" as="geometry" />
        </mxCell>
        <mxCell id="-mwx2HMCYt_P7wvI2Kho-33" value="" style="endArrow=none;html=1;rounded=0;" parent="1" edge="1">
          <mxGeometry width="50" height="50" relative="1" as="geometry">
            <mxPoint x="-40" y="159.66" as="sourcePoint" />
            <mxPoint y="160" as="targetPoint" />
          </mxGeometry>
        </mxCell>
        <mxCell id="-mwx2HMCYt_P7wvI2Kho-39" style="edgeStyle=orthogonalEdgeStyle;rounded=0;orthogonalLoop=1;jettySize=auto;html=1;entryX=0.5;entryY=0;entryDx=0;entryDy=0;" parent="1" source="-mwx2HMCYt_P7wvI2Kho-35" target="-mwx2HMCYt_P7wvI2Kho-38" edge="1">
          <mxGeometry relative="1" as="geometry" />
        </mxCell>
        <mxCell id="-mwx2HMCYt_P7wvI2Kho-35" value="int id = ++IterationCounter;" style="rounded=0;whiteSpace=wrap;html=1;" parent="1" vertex="1">
          <mxGeometry x="-80" y="220" width="160" height="20" as="geometry" />
        </mxCell>
        <mxCell id="-mwx2HMCYt_P7wvI2Kho-37" value="" style="endArrow=classic;html=1;rounded=0;" parent="1" edge="1">
          <mxGeometry width="50" height="50" relative="1" as="geometry">
            <mxPoint y="160" as="sourcePoint" />
            <mxPoint y="220" as="targetPoint" />
          </mxGeometry>
        </mxCell>
        <mxCell id="-mwx2HMCYt_P7wvI2Kho-38" value="cout &amp;lt;&amp;lt; &quot;Создание итерации с ID = &quot; &amp;lt;&amp;lt; id &amp;lt;&amp;lt; &quot; и n = &quot; &amp;lt;&amp;lt; n &amp;lt;&amp;lt; &quot;, ID родительской итерации: &quot; &amp;lt;&amp;lt; rootId &amp;lt;&amp;lt; endl &amp;lt;&amp;lt; endl;" style="shape=parallelogram;perimeter=parallelogramPerimeter;whiteSpace=wrap;html=1;fixedSize=1;" parent="1" vertex="1">
          <mxGeometry x="-205" y="270" width="410" height="60" as="geometry" />
        </mxCell>
        <mxCell id="-mwx2HMCYt_P7wvI2Kho-44" style="edgeStyle=orthogonalEdgeStyle;rounded=0;orthogonalLoop=1;jettySize=auto;html=1;entryX=0.5;entryY=0;entryDx=0;entryDy=0;" parent="1" source="-mwx2HMCYt_P7wvI2Kho-40" target="-mwx2HMCYt_P7wvI2Kho-43" edge="1">
          <mxGeometry relative="1" as="geometry" />
        </mxCell>
        <mxCell id="-mwx2HMCYt_P7wvI2Kho-40" value="cout &amp;lt;&amp;lt; &quot;Позиции башен:&quot; &amp;lt;&amp;lt; endl &amp;lt;&amp;lt; &quot;Стратовая: &quot; &amp;lt;&amp;lt; start &amp;lt;&amp;lt; &quot;, Дополнительная: &quot; &amp;lt;&amp;lt; helping &amp;lt;&amp;lt; &quot;, Целевая: &quot; &amp;lt;&amp;lt; goal &amp;lt;&amp;lt; endl &amp;lt;&amp;lt; endl;" style="shape=parallelogram;perimeter=parallelogramPerimeter;whiteSpace=wrap;html=1;fixedSize=1;" parent="1" vertex="1">
          <mxGeometry x="-210" y="360" width="420" height="60" as="geometry" />
        </mxCell>
        <mxCell id="-mwx2HMCYt_P7wvI2Kho-42" style="edgeStyle=orthogonalEdgeStyle;rounded=0;orthogonalLoop=1;jettySize=auto;html=1;entryX=0.5;entryY=-0.047;entryDx=0;entryDy=0;entryPerimeter=0;" parent="1" source="-mwx2HMCYt_P7wvI2Kho-38" target="-mwx2HMCYt_P7wvI2Kho-40" edge="1">
          <mxGeometry relative="1" as="geometry" />
        </mxCell>
        <mxCell id="-mwx2HMCYt_P7wvI2Kho-46" style="edgeStyle=orthogonalEdgeStyle;rounded=0;orthogonalLoop=1;jettySize=auto;html=1;entryX=0.5;entryY=0;entryDx=0;entryDy=0;" parent="1" source="-mwx2HMCYt_P7wvI2Kho-43" target="-mwx2HMCYt_P7wvI2Kho-45" edge="1">
          <mxGeometry relative="1" as="geometry" />
        </mxCell>
        <mxCell id="-mwx2HMCYt_P7wvI2Kho-43" value="cout &amp;lt;&amp;lt; &quot;Создаем итерацию по первой ветке!&quot; &amp;lt;&amp;lt; endl &amp;lt;&amp;lt; &quot;------------------------&quot; &amp;lt;&amp;lt; endl;" style="shape=parallelogram;perimeter=parallelogramPerimeter;whiteSpace=wrap;html=1;fixedSize=1;" parent="1" vertex="1">
          <mxGeometry x="-125" y="460" width="250" height="60" as="geometry" />
        </mxCell>
        <mxCell id="-mwx2HMCYt_P7wvI2Kho-48" style="edgeStyle=orthogonalEdgeStyle;rounded=0;orthogonalLoop=1;jettySize=auto;html=1;entryX=0.5;entryY=0;entryDx=0;entryDy=0;" parent="1" source="-mwx2HMCYt_P7wvI2Kho-45" target="-mwx2HMCYt_P7wvI2Kho-47" edge="1">
          <mxGeometry relative="1" as="geometry" />
        </mxCell>
        <mxCell id="-mwx2HMCYt_P7wvI2Kho-45" value="TowerSolver(n - 1, start, helping, goal, id);" style="shape=process;whiteSpace=wrap;html=1;backgroundOutline=1;" parent="1" vertex="1">
          <mxGeometry x="-60" y="555" width="120" height="60" as="geometry" />
        </mxCell>
        <mxCell id="-mwx2HMCYt_P7wvI2Kho-50" style="edgeStyle=orthogonalEdgeStyle;rounded=0;orthogonalLoop=1;jettySize=auto;html=1;entryX=0.5;entryY=0;entryDx=0;entryDy=0;" parent="1" source="-mwx2HMCYt_P7wvI2Kho-47" target="-mwx2HMCYt_P7wvI2Kho-49" edge="1">
          <mxGeometry relative="1" as="geometry" />
        </mxCell>
        <mxCell id="-mwx2HMCYt_P7wvI2Kho-47" value="cout &amp;lt;&amp;lt; &quot;Возвращаемся в ранее созданую итерацию с ID = &quot; &amp;lt;&amp;lt; id &amp;lt;&amp;lt; &quot; и n = &quot; &amp;lt;&amp;lt; n &amp;lt;&amp;lt; endl;" style="shape=parallelogram;perimeter=parallelogramPerimeter;whiteSpace=wrap;html=1;fixedSize=1;" parent="1" vertex="1">
          <mxGeometry x="-145" y="650" width="290" height="60" as="geometry" />
        </mxCell>
        <mxCell id="-mwx2HMCYt_P7wvI2Kho-53" style="edgeStyle=orthogonalEdgeStyle;rounded=0;orthogonalLoop=1;jettySize=auto;html=1;entryX=0.5;entryY=0;entryDx=0;entryDy=0;" parent="1" source="-mwx2HMCYt_P7wvI2Kho-49" target="-mwx2HMCYt_P7wvI2Kho-51" edge="1">
          <mxGeometry relative="1" as="geometry" />
        </mxCell>
        <mxCell id="-mwx2HMCYt_P7wvI2Kho-49" value="cout &amp;lt;&amp;lt; &quot;Позиции башен:&quot; &amp;lt;&amp;lt; endl &amp;lt;&amp;lt; &quot;Стратовая: &quot; &amp;lt;&amp;lt; start &amp;lt;&amp;lt; &quot;, Дополнительная: &quot; &amp;lt;&amp;lt; helping &amp;lt;&amp;lt; &quot;, Целевая: &quot; &amp;lt;&amp;lt; goal &amp;lt;&amp;lt; endl &amp;lt;&amp;lt; endl;" style="shape=parallelogram;perimeter=parallelogramPerimeter;whiteSpace=wrap;html=1;fixedSize=1;" parent="1" vertex="1">
          <mxGeometry x="-215" y="750" width="430" height="60" as="geometry" />
        </mxCell>
        <mxCell id="-mwx2HMCYt_P7wvI2Kho-55" style="edgeStyle=orthogonalEdgeStyle;rounded=0;orthogonalLoop=1;jettySize=auto;html=1;entryX=0.5;entryY=0;entryDx=0;entryDy=0;" parent="1" source="-mwx2HMCYt_P7wvI2Kho-51" target="-mwx2HMCYt_P7wvI2Kho-54" edge="1">
          <mxGeometry relative="1" as="geometry" />
        </mxCell>
        <mxCell id="-mwx2HMCYt_P7wvI2Kho-51" value="&amp;nbsp;cout &amp;lt;&amp;lt; &quot;Выводим действие для решения задачи: &quot; &amp;lt;&amp;lt; endl;" style="shape=parallelogram;perimeter=parallelogramPerimeter;whiteSpace=wrap;html=1;fixedSize=1;" parent="1" vertex="1">
          <mxGeometry x="-110" y="850" width="220" height="60" as="geometry" />
        </mxCell>
        <mxCell id="-mwx2HMCYt_P7wvI2Kho-57" style="edgeStyle=orthogonalEdgeStyle;rounded=0;orthogonalLoop=1;jettySize=auto;html=1;entryX=0.5;entryY=0;entryDx=0;entryDy=0;" parent="1" source="-mwx2HMCYt_P7wvI2Kho-54" target="-mwx2HMCYt_P7wvI2Kho-56" edge="1">
          <mxGeometry relative="1" as="geometry" />
        </mxCell>
        <mxCell id="-mwx2HMCYt_P7wvI2Kho-54" value="cout &amp;lt;&amp;lt; &quot;(Переместить диск &quot; &amp;lt;&amp;lt; n &amp;lt;&amp;lt; &quot; с башни &quot; &amp;lt;&amp;lt; start &amp;lt;&amp;lt; &quot; на башню &quot; &amp;lt;&amp;lt; goal &amp;lt;&amp;lt; &quot;)&quot; &amp;lt;&amp;lt; endl &amp;lt;&amp;lt; endl;" style="shape=parallelogram;perimeter=parallelogramPerimeter;whiteSpace=wrap;html=1;fixedSize=1;" parent="1" vertex="1">
          <mxGeometry x="-300" y="950" width="600" height="60" as="geometry" />
        </mxCell>
        <mxCell id="-mwx2HMCYt_P7wvI2Kho-59" style="edgeStyle=orthogonalEdgeStyle;rounded=0;orthogonalLoop=1;jettySize=auto;html=1;entryX=0.5;entryY=0;entryDx=0;entryDy=0;" parent="1" source="-mwx2HMCYt_P7wvI2Kho-56" target="-mwx2HMCYt_P7wvI2Kho-58" edge="1">
          <mxGeometry relative="1" as="geometry" />
        </mxCell>
        <mxCell id="-mwx2HMCYt_P7wvI2Kho-56" value="cout &amp;lt;&amp;lt; &quot;Создаем итерацию по второй ветке!&quot; &amp;lt;&amp;lt; endl &amp;lt;&amp;lt; &quot;------------------------&quot; &amp;lt;&amp;lt; endl;" style="shape=parallelogram;perimeter=parallelogramPerimeter;whiteSpace=wrap;html=1;fixedSize=1;" parent="1" vertex="1">
          <mxGeometry x="-255" y="1050" width="510" height="60" as="geometry" />
        </mxCell>
        <mxCell id="-mwx2HMCYt_P7wvI2Kho-58" value="TowerSolver(n - 1, helping, goal, start, id);" style="shape=process;whiteSpace=wrap;html=1;backgroundOutline=1;" parent="1" vertex="1">
          <mxGeometry x="-60" y="1150" width="120" height="60" as="geometry" />
        </mxCell>
        <mxCell id="-mwx2HMCYt_P7wvI2Kho-60" value="cout &amp;lt;&amp;lt; &quot;Уничтожаем итерацию с ID = &quot; &amp;lt;&amp;lt; id &amp;lt;&amp;lt; endl &amp;lt;&amp;lt; &quot;------------------------&quot; &amp;lt;&amp;lt; endl;" style="shape=parallelogram;perimeter=parallelogramPerimeter;whiteSpace=wrap;html=1;fixedSize=1;" parent="1" vertex="1">
          <mxGeometry x="-220" y="1250" width="490" height="60" as="geometry" />
        </mxCell>
        <mxCell id="-mwx2HMCYt_P7wvI2Kho-61" style="edgeStyle=orthogonalEdgeStyle;rounded=0;orthogonalLoop=1;jettySize=auto;html=1;entryX=0.448;entryY=-0.008;entryDx=0;entryDy=0;entryPerimeter=0;" parent="1" source="-mwx2HMCYt_P7wvI2Kho-58" target="-mwx2HMCYt_P7wvI2Kho-60" edge="1">
          <mxGeometry relative="1" as="geometry" />
        </mxCell>
        <mxCell id="-mwx2HMCYt_P7wvI2Kho-62" value="" style="endArrow=none;html=1;rounded=0;" parent="1" edge="1">
          <mxGeometry width="50" height="50" relative="1" as="geometry">
            <mxPoint y="1310" as="sourcePoint" />
            <mxPoint y="1400" as="targetPoint" />
          </mxGeometry>
        </mxCell>
        <mxCell id="-mwx2HMCYt_P7wvI2Kho-63" value="" style="endArrow=none;html=1;rounded=0;" parent="1" edge="1">
          <mxGeometry width="50" height="50" relative="1" as="geometry">
            <mxPoint x="-560" y="160" as="sourcePoint" />
            <mxPoint x="-121" y="160" as="targetPoint" />
          </mxGeometry>
        </mxCell>
        <mxCell id="-mwx2HMCYt_P7wvI2Kho-64" value="" style="endArrow=classic;html=1;rounded=0;entryX=0.486;entryY=0.017;entryDx=0;entryDy=0;entryPerimeter=0;" parent="1" target="-mwx2HMCYt_P7wvI2Kho-65" edge="1">
          <mxGeometry width="50" height="50" relative="1" as="geometry">
            <mxPoint x="-560" y="160" as="sourcePoint" />
            <mxPoint x="-560" y="240" as="targetPoint" />
          </mxGeometry>
        </mxCell>
        <mxCell id="-mwx2HMCYt_P7wvI2Kho-65" value="&lt;div&gt;cout &amp;lt;&amp;lt; &quot;Обнаружена итерация с n = 0. Поднимаемся на итерацию выше!&quot; &amp;lt;&amp;lt; endl &amp;lt;&amp;lt; &quot;------------------------&quot; &amp;lt;&amp;lt; endl;&lt;/div&gt;" style="shape=parallelogram;perimeter=parallelogramPerimeter;whiteSpace=wrap;html=1;fixedSize=1;" parent="1" vertex="1">
          <mxGeometry x="-880" y="270" width="660" height="20" as="geometry" />
        </mxCell>
        <mxCell id="-mwx2HMCYt_P7wvI2Kho-66" value="" style="endArrow=none;html=1;rounded=0;" parent="1" edge="1">
          <mxGeometry width="50" height="50" relative="1" as="geometry">
            <mxPoint x="-560" y="1400" as="sourcePoint" />
            <mxPoint x="-560" y="290" as="targetPoint" />
          </mxGeometry>
        </mxCell>
        <mxCell id="-mwx2HMCYt_P7wvI2Kho-67" value="" style="endArrow=none;html=1;rounded=0;" parent="1" edge="1">
          <mxGeometry width="50" height="50" relative="1" as="geometry">
            <mxPoint x="-560" y="1400" as="sourcePoint" />
            <mxPoint y="1400" as="targetPoint" />
          </mxGeometry>
        </mxCell>
        <mxCell id="-mwx2HMCYt_P7wvI2Kho-68" value="" style="endArrow=classic;html=1;rounded=0;" parent="1" edge="1">
          <mxGeometry width="50" height="50" relative="1" as="geometry">
            <mxPoint x="-320" y="1400" as="sourcePoint" />
            <mxPoint x="-320" y="1480" as="targetPoint" />
          </mxGeometry>
        </mxCell>
        <mxCell id="-mwx2HMCYt_P7wvI2Kho-69" value="конец" style="ellipse;whiteSpace=wrap;html=1;" parent="1" vertex="1">
          <mxGeometry x="-380" y="1480" width="120" height="30" as="geometry" />
        </mxCell>
        <mxCell id="90ftL1BwUV4VTF1AdP4D-1" value="}" style="text;html=1;strokeColor=none;fillColor=none;align=center;verticalAlign=middle;whiteSpace=wrap;rounded=0;" vertex="1" parent="1">
          <mxGeometry x="-330" y="1520" width="60" height="30" as="geometry" />
        </mxCell>
        <mxCell id="90ftL1BwUV4VTF1AdP4D-2" value="}" style="text;html=1;strokeColor=none;fillColor=none;align=center;verticalAlign=middle;whiteSpace=wrap;rounded=0;" vertex="1" parent="1">
          <mxGeometry x="429" y="550" width="60" height="30" as="geometry" />
        </mxCell>
      </root>
    </mxGraphModel>
  </diagram>
</mxfile>
